<svg width="591" height="627" viewBox="0 0 591 627" fill="none" xmlns="http://www.w3.org/2000/svg">
<path d="M19.9836 20.5234C23.0342 1.75331 5.55542 0.118699 1.04302 0.00724884H0C0 0.00724884 0.382666 -0.00906105 1.04302 0.00724884H590.015L580.023 89.3336L563.537 129.866L580.023 154.885L590.015 301C590.015 301 572.529 304.002 572.529 321.516C572.529 337.131 590.015 340.531 590.015 340.531V620.495H517.574C517.574 620.495 518.05 603.923 514.577 597.477C508.319 585.861 483.103 582.965 473.111 590.471C460.616 599.858 468.115 620.495 468.115 620.495L446.633 612.489H430.146C430.146 612.489 403.668 600.98 396.674 604.482C381.481 612.091 377.19 627 377.19 627L268.279 608.986L1.81198e-05 620.495L0 43.5415C0 43.5415 16.4864 42.0403 19.9836 20.5234Z" fill="#AD684F"/>
</svg>
