<svg width="601" height="819" viewBox="0 0 601 819" fill="none" xmlns="http://www.w3.org/2000/svg">
<path d="M4.94084 178C4.94084 178 28.2671 177 24.7929 198.5C21.3188 220 9.90386 262 9.90386 262L0 799L92.2901 790L156.809 819C156.809 819 164.624 804.376 180.632 799C185.099 797.5 210.41 804 210.41 804H344.412C344.412 804 366.745 783 393.049 778C410.13 774.753 452.606 799 452.606 799L601 790V464.5C601 464.5 581.148 465.103 581.148 449.5C581.148 432 601 430.5 601 430.5V52.5C601 52.5 579.104 44.9908 580.155 29C581.147 13.9068 601 0 601 0H0L4.94084 178Z" fill="#AD684F"/>
</svg>
