<svg preserveAspectRatio="none" width="100%" height="100%" overflow="visible" style="display: block;" viewBox="0 0 609 1520" fill="none" xmlns="http://www.w3.org/2000/svg">
<g id="bg" filter="url(#filter0_d_267_298)">
<path d="M0 0H35C35 0 54 16.9782 88.5 17.5C96.8246 17.6259 102.5 0 102.5 0H272.5L293.5 17.5L300 0L445.5 5L471.5 17.5L595 0V256.5L576 288L595 298L608.5 686C608.5 686 588.499 699.907 587.5 715C586.441 730.991 608.5 738.5 608.5 738.5V1116.5C608.5 1116.5 588.5 1118 588.5 1135.5C588.5 1151.1 608.5 1150.5 608.5 1150.5V1476L459 1485C459 1485 416.208 1460.75 399 1464C372.5 1469 350 1490 350 1490H215C215 1490 189.5 1483.5 185 1485C168.872 1490.38 161 1505 161 1505L96 1476L0 1484L13 948C13 948 24.5 906 28 884.5C31.5 863 8 864 8 864L0 566L18 451L9 381L0 0Z" fill="var(--fill-0, #AD684F)"/>
</g>
<defs>
<filter id="filter0_d_267_298" x="0" y="0" width="608.5" height="1520" filterUnits="userSpaceOnUse" color-interpolation-filters="sRGB">
<feFlood flood-opacity="0" result="BackgroundImageFix"/>
<feColorMatrix in="SourceAlpha" type="matrix" values="0 0 0 0 0 0 0 0 0 0 0 0 0 0 0 0 0 0 127 0" result="hardAlpha"/>
<feOffset dy="15"/>
<feComposite in2="hardAlpha" operator="out"/>
<feColorMatrix type="matrix" values="0 0 0 0 0 0 0 0 0 0 0 0 0 0 0 0 0 0 0.25 0"/>
<feBlend mode="normal" in2="BackgroundImageFix" result="effect1_dropShadow_267_298"/>
<feBlend mode="normal" in="SourceGraphic" in2="effect1_dropShadow_267_298" result="shape"/>
</filter>
</defs>
</svg>
